<mxfile host="65bd71144e">
    <diagram id="6v-7wtyFzxtqLuyJfUOi" name="Page-1">
        <mxGraphModel dx="715" dy="534" grid="1" gridSize="10" guides="1" tooltips="1" connect="1" arrows="1" fold="1" page="1" pageScale="1" pageWidth="850" pageHeight="1100" math="0" shadow="0">
            <root>
                <mxCell id="0"/>
                <mxCell id="1" parent="0"/>
                <mxCell id="25" value="" style="rounded=1;whiteSpace=wrap;html=1;" vertex="1" parent="1">
                    <mxGeometry x="110" y="540" width="620" height="390" as="geometry"/>
                </mxCell>
                <mxCell id="2" value="recieve speech data from API&amp;nbsp;" style="rounded=1;whiteSpace=wrap;html=1;absoluteArcSize=1;arcSize=14;strokeWidth=2;" parent="1" vertex="1">
                    <mxGeometry x="450" y="280" width="200" height="40" as="geometry"/>
                </mxCell>
                <mxCell id="3" value="Initiate SASVNet model" style="rounded=1;whiteSpace=wrap;html=1;absoluteArcSize=1;arcSize=14;strokeWidth=2;" parent="1" vertex="1">
                    <mxGeometry x="200" y="120" width="200" height="40" as="geometry"/>
                </mxCell>
                <mxCell id="4" value="Load weight" style="rounded=1;whiteSpace=wrap;html=1;absoluteArcSize=1;arcSize=14;strokeWidth=2;" parent="1" vertex="1">
                    <mxGeometry x="200" y="200" width="200" height="40" as="geometry"/>
                </mxCell>
                <mxCell id="5" value="recieve speech data from API&amp;nbsp;" style="rounded=1;whiteSpace=wrap;html=1;absoluteArcSize=1;arcSize=14;strokeWidth=2;" parent="1" vertex="1">
                    <mxGeometry x="450" y="360" width="200" height="40" as="geometry"/>
                </mxCell>
                <mxCell id="6" value="RegisterSpeaker" style="ellipse;html=1;whiteSpace=wrap;" vertex="1" parent="1">
                    <mxGeometry x="190" y="590" width="120" height="40" as="geometry"/>
                </mxCell>
                <mxCell id="30" style="edgeStyle=none;html=1;entryX=0;entryY=0.5;entryDx=0;entryDy=0;endArrow=none;endFill=0;" edge="1" parent="1" target="6">
                    <mxGeometry relative="1" as="geometry">
                        <mxPoint x="60" y="730" as="sourcePoint"/>
                    </mxGeometry>
                </mxCell>
                <mxCell id="7" value="User" style="shape=umlActor;verticalLabelPosition=bottom;verticalAlign=top;html=1;" vertex="1" parent="1">
                    <mxGeometry x="30" y="710" width="30" height="60" as="geometry"/>
                </mxCell>
                <mxCell id="8" value="SpoofDetect" style="ellipse;html=1;whiteSpace=wrap;" vertex="1" parent="1">
                    <mxGeometry x="190" y="830" width="120" height="40" as="geometry"/>
                </mxCell>
                <mxCell id="9" value="VerifySpeaker" style="ellipse;html=1;whiteSpace=wrap;" vertex="1" parent="1">
                    <mxGeometry x="190" y="700" width="120" height="40" as="geometry"/>
                </mxCell>
                <mxCell id="10" value="UploadSpeech" style="ellipse;html=1;whiteSpace=wrap;" vertex="1" parent="1">
                    <mxGeometry x="400" y="590" width="120" height="40" as="geometry"/>
                </mxCell>
                <mxCell id="11" value="RecordSpeech" style="ellipse;html=1;whiteSpace=wrap;" vertex="1" parent="1">
                    <mxGeometry x="590" y="590" width="120" height="40" as="geometry"/>
                </mxCell>
                <mxCell id="26" value="&amp;lt;&amp;lt;include&amp;gt;&amp;gt;" style="html=1;verticalAlign=bottom;labelBackgroundColor=none;endArrow=open;endFill=0;dashed=1;exitX=1;exitY=0.5;exitDx=0;exitDy=0;entryX=0;entryY=0.5;entryDx=0;entryDy=0;" edge="1" parent="1" source="6" target="10">
                    <mxGeometry width="160" relative="1" as="geometry">
                        <mxPoint x="290" y="820" as="sourcePoint"/>
                        <mxPoint x="450" y="820" as="targetPoint"/>
                    </mxGeometry>
                </mxCell>
                <mxCell id="27" value="&amp;lt;&amp;lt;include&amp;gt;&amp;gt;" style="html=1;verticalAlign=bottom;labelBackgroundColor=none;endArrow=open;endFill=0;dashed=1;exitX=1;exitY=0.5;exitDx=0;exitDy=0;entryX=0;entryY=0.5;entryDx=0;entryDy=0;" edge="1" parent="1" source="10" target="11">
                    <mxGeometry width="160" relative="1" as="geometry">
                        <mxPoint x="320" y="620" as="sourcePoint"/>
                        <mxPoint x="410" y="620" as="targetPoint"/>
                    </mxGeometry>
                </mxCell>
                <mxCell id="28" value="&amp;lt;&amp;lt;include&amp;gt;&amp;gt;" style="html=1;verticalAlign=bottom;labelBackgroundColor=none;endArrow=open;endFill=0;dashed=1;exitX=1;exitY=0.5;exitDx=0;exitDy=0;entryX=0;entryY=1;entryDx=0;entryDy=0;" edge="1" parent="1" source="9" target="10">
                    <mxGeometry width="160" relative="1" as="geometry">
                        <mxPoint x="320" y="620" as="sourcePoint"/>
                        <mxPoint x="410" y="620" as="targetPoint"/>
                    </mxGeometry>
                </mxCell>
                <mxCell id="29" value="&amp;lt;&amp;lt;include&amp;gt;&amp;gt;" style="html=1;verticalAlign=bottom;labelBackgroundColor=none;endArrow=open;endFill=0;dashed=1;exitX=1;exitY=0.5;exitDx=0;exitDy=0;entryX=0.5;entryY=1;entryDx=0;entryDy=0;" edge="1" parent="1" source="8" target="10">
                    <mxGeometry width="160" relative="1" as="geometry">
                        <mxPoint x="320" y="730" as="sourcePoint"/>
                        <mxPoint x="420" y="630" as="targetPoint"/>
                    </mxGeometry>
                </mxCell>
                <mxCell id="31" style="edgeStyle=none;html=1;entryX=0;entryY=0.5;entryDx=0;entryDy=0;endArrow=none;endFill=0;exitX=1;exitY=0.3333333333333333;exitDx=0;exitDy=0;exitPerimeter=0;" edge="1" parent="1" source="7" target="9">
                    <mxGeometry relative="1" as="geometry">
                        <mxPoint x="70" y="737" as="sourcePoint"/>
                        <mxPoint x="200" y="620" as="targetPoint"/>
                    </mxGeometry>
                </mxCell>
                <mxCell id="32" style="edgeStyle=none;html=1;entryX=0;entryY=0.5;entryDx=0;entryDy=0;endArrow=none;endFill=0;exitX=1;exitY=0.3333333333333333;exitDx=0;exitDy=0;exitPerimeter=0;" edge="1" parent="1" source="7" target="8">
                    <mxGeometry relative="1" as="geometry">
                        <mxPoint x="80" y="747" as="sourcePoint"/>
                        <mxPoint x="210" y="630" as="targetPoint"/>
                    </mxGeometry>
                </mxCell>
                <mxCell id="37" value="" style="shape=internalStorage;whiteSpace=wrap;html=1;backgroundOutline=1;dx=260;dy=40;" vertex="1" parent="1">
                    <mxGeometry x="880" y="330" width="520" height="400" as="geometry"/>
                </mxCell>
                <mxCell id="38" value="User" style="text;html=1;align=center;verticalAlign=middle;resizable=0;points=[];autosize=1;strokeColor=none;fillColor=none;" vertex="1" parent="1">
                    <mxGeometry x="980" y="340" width="50" height="30" as="geometry"/>
                </mxCell>
                <mxCell id="39" value="Browser" style="text;html=1;align=center;verticalAlign=middle;resizable=0;points=[];autosize=1;strokeColor=none;fillColor=none;" vertex="1" parent="1">
                    <mxGeometry x="1240" y="340" width="70" height="30" as="geometry"/>
                </mxCell>
                <mxCell id="44" value="" style="edgeStyle=none;html=1;" edge="1" parent="1" source="40" target="43">
                    <mxGeometry relative="1" as="geometry"/>
                </mxCell>
                <mxCell id="40" value="" style="ellipse;fillColor=strokeColor;html=1;" vertex="1" parent="1">
                    <mxGeometry x="990" y="390" width="30" height="30" as="geometry"/>
                </mxCell>
                <mxCell id="41" value="" style="ellipse;html=1;shape=endState;fillColor=strokeColor;" vertex="1" parent="1">
                    <mxGeometry x="1260" y="690" width="30" height="30" as="geometry"/>
                </mxCell>
                <mxCell id="46" style="edgeStyle=none;html=1;entryX=0;entryY=0.5;entryDx=0;entryDy=0;" edge="1" parent="1" source="43" target="45">
                    <mxGeometry relative="1" as="geometry"/>
                </mxCell>
                <mxCell id="43" value="Click on &quot;Record&quot; button" style="html=1;align=center;verticalAlign=top;rounded=1;absoluteArcSize=1;arcSize=10;dashed=0;whiteSpace=wrap;" vertex="1" parent="1">
                    <mxGeometry x="935" y="460" width="140" height="30" as="geometry"/>
                </mxCell>
                <mxCell id="45" value="Start recording" style="html=1;align=center;verticalAlign=top;rounded=1;absoluteArcSize=1;arcSize=10;dashed=0;whiteSpace=wrap;" vertex="1" parent="1">
                    <mxGeometry x="1215" y="460" width="140" height="30" as="geometry"/>
                </mxCell>
                <mxCell id="55" style="edgeStyle=none;html=1;exitX=1.409;exitY=0.504;exitDx=0;exitDy=0;entryX=0;entryY=0.5;entryDx=0;entryDy=0;exitPerimeter=0;" edge="1" parent="1" source="57" target="54">
                    <mxGeometry relative="1" as="geometry">
                        <mxPoint x="1090" y="565" as="sourcePoint"/>
                        <Array as="points">
                            <mxPoint x="1005" y="640"/>
                        </Array>
                    </mxGeometry>
                </mxCell>
                <mxCell id="62" style="edgeStyle=none;html=1;entryX=0.5;entryY=0;entryDx=0;entryDy=0;" edge="1" parent="1" source="54" target="41">
                    <mxGeometry relative="1" as="geometry">
                        <mxPoint x="1275" y="690" as="targetPoint"/>
                    </mxGeometry>
                </mxCell>
                <mxCell id="54" value="Stop recording" style="html=1;align=center;verticalAlign=top;rounded=1;absoluteArcSize=1;arcSize=10;dashed=0;whiteSpace=wrap;" vertex="1" parent="1">
                    <mxGeometry x="1205" y="625" width="140" height="30" as="geometry"/>
                </mxCell>
                <mxCell id="57" value="" style="html=1;points=[];perimeter=orthogonalPerimeter;fillColor=strokeColor;rotation=90;" vertex="1" parent="1">
                    <mxGeometry x="1002.5" y="570" width="5" height="80" as="geometry"/>
                </mxCell>
                <mxCell id="58" value="Click on &quot;Record&quot; button 2nd time" style="html=1;align=center;verticalAlign=top;rounded=1;absoluteArcSize=1;arcSize=10;dashed=0;whiteSpace=wrap;" vertex="1" parent="1">
                    <mxGeometry x="935" y="520" width="140" height="40" as="geometry"/>
                </mxCell>
                <mxCell id="59" style="edgeStyle=none;html=1;entryX=0.298;entryY=0.868;entryDx=0;entryDy=0;entryPerimeter=0;exitX=0.287;exitY=1.009;exitDx=0;exitDy=0;exitPerimeter=0;" edge="1" parent="1" source="58" target="57">
                    <mxGeometry relative="1" as="geometry"/>
                </mxCell>
                <mxCell id="60" style="edgeStyle=none;html=1;entryX=0.26;entryY=0.163;entryDx=0;entryDy=0;entryPerimeter=0;" edge="1" parent="1" source="45" target="57">
                    <mxGeometry relative="1" as="geometry">
                        <Array as="points">
                            <mxPoint x="1285" y="580"/>
                            <mxPoint x="1032" y="580"/>
                        </Array>
                    </mxGeometry>
                </mxCell>
            </root>
        </mxGraphModel>
    </diagram>
</mxfile>